{
    "asset" : {
        "generator" : "Khronos glTF Blender I/O v1.2.75",
        "version" : "2.0"
    },
    "scene" : 0,
    "scenes" : [
        {
            "name" : "Scene",
            "nodes" : [
                0
            ]
        }
    ],
    "nodes" : [
        {
            "mesh" : 0,
            "name" : "House1"
        }
    ],
    "meshes" : [
        {
            "name" : "Cube",
            "primitives" : [
                {
                    "attributes" : {
                        "POSITION" : 0,
                        "NORMAL" : 1,
                        "TEXCOORD_0" : 2
                    },
                    "indices" : 3
                }
            ]
        }
    ],
    "accessors" : [
        {
            "bufferView" : 0,
            "componentType" : 5126,
            "count" : 880,
            "max" : [
                11.130762100219727,
                21.974870681762695,
                6.378379821777344
            ],
            "min" : [
                -6.3580851554870605,
                0.00033588113728910685,
                -6.337790489196777
            ],
            "type" : "VEC3"
        },
        {
            "bufferView" : 1,
            "componentType" : 5126,
            "count" : 880,
            "type" : "VEC3"
        },
        {
            "bufferView" : 2,
            "componentType" : 5126,
            "count" : 880,
            "type" : "VEC2"
        },
        {
            "bufferView" : 3,
            "componentType" : 5123,
            "count" : 1020,
            "type" : "SCALAR"
        }
    ],
    "bufferViews" : [
        {
            "buffer" : 0,
            "byteLength" : 10560,
            "byteOffset" : 0
        },
        {
            "buffer" : 0,
            "byteLength" : 10560,
            "byteOffset" : 10560
        },
        {
            "buffer" : 0,
            "byteLength" : 7040,
            "byteOffset" : 21120
        },
        {
            "buffer" : 0,
            "byteLength" : 2040,
            "byteOffset" : 28160
        }
    ],
    "buffers" : [
        {
            "byteLength" : 30200,
            "uri" : "data:application/octet-stream;base64,"
        }
    ]
}
