{
    "asset" : {
        "generator" : "Khronos glTF Blender I/O v1.2.75",
        "version" : "2.0"
    },
    "scene" : 0,
    "scenes" : [
        {
            "name" : "Scene",
            "nodes" : [
                3
            ]
        }
    ],
    "nodes" : [
        {
            "name" : "Car",
            "rotation" : [
                -5.923972423715895e-08,
                -1.5763338412355665e-09,
                0.05829436704516411,
                0.9982994198799133
            ],
            "translation" : [
                -3.758586611582545e-17,
                -0.07900393754243851,
                1.061487786557791e-08
            ]
        },
        {
            "name" : "Wheels",
            "rotation" : [
                -1.6232688722084276e-06,
                1.6767778561188607e-06,
                0.7093042731285095,
                0.7049025297164917
            ],
            "scale" : [
                0.9999998807907104,
                0.9999998211860657,
                0.9999999403953552
            ],
            "translation" : [
                0.8887941837310791,
                -0.7022572755813599,
                9.43544620213288e-08
            ]
        },
        {
            "mesh" : 0,
            "name" : "Car",
            "skin" : 0
        },
        {
            "children" : [
                2,
                0,
                1
            ],
            "name" : "CarArmature",
            "translation" : [
                0.010972767136991024,
                -0.49377456307411194,
                0
            ]
        }
    ],
    "animations" : [
        {
            "channels" : [
                {
                    "sampler" : 0,
                    "target" : {
                        "node" : 0,
                        "path" : "translation"
                    }
                },
                {
                    "sampler" : 1,
                    "target" : {
                        "node" : 0,
                        "path" : "rotation"
                    }
                },
                {
                    "sampler" : 2,
                    "target" : {
                        "node" : 0,
                        "path" : "scale"
                    }
                },
                {
                    "sampler" : 3,
                    "target" : {
                        "node" : 1,
                        "path" : "translation"
                    }
                },
                {
                    "sampler" : 4,
                    "target" : {
                        "node" : 1,
                        "path" : "rotation"
                    }
                },
                {
                    "sampler" : 5,
                    "target" : {
                        "node" : 1,
                        "path" : "scale"
                    }
                }
            ],
            "name" : "Braking",
            "samplers" : [
                {
                    "input" : 7,
                    "interpolation" : "LINEAR",
                    "output" : 8
                },
                {
                    "input" : 7,
                    "interpolation" : "LINEAR",
                    "output" : 9
                },
                {
                    "input" : 7,
                    "interpolation" : "LINEAR",
                    "output" : 10
                },
                {
                    "input" : 7,
                    "interpolation" : "LINEAR",
                    "output" : 11
                },
                {
                    "input" : 7,
                    "interpolation" : "LINEAR",
                    "output" : 12
                },
                {
                    "input" : 7,
                    "interpolation" : "LINEAR",
                    "output" : 13
                }
            ]
        },
        {
            "channels" : [
                {
                    "sampler" : 0,
                    "target" : {
                        "node" : 0,
                        "path" : "translation"
                    }
                },
                {
                    "sampler" : 1,
                    "target" : {
                        "node" : 0,
                        "path" : "rotation"
                    }
                },
                {
                    "sampler" : 2,
                    "target" : {
                        "node" : 0,
                        "path" : "scale"
                    }
                },
                {
                    "sampler" : 3,
                    "target" : {
                        "node" : 1,
                        "path" : "translation"
                    }
                },
                {
                    "sampler" : 4,
                    "target" : {
                        "node" : 1,
                        "path" : "rotation"
                    }
                },
                {
                    "sampler" : 5,
                    "target" : {
                        "node" : 1,
                        "path" : "scale"
                    }
                }
            ],
            "name" : "Driving",
            "samplers" : [
                {
                    "input" : 14,
                    "interpolation" : "LINEAR",
                    "output" : 15
                },
                {
                    "input" : 14,
                    "interpolation" : "LINEAR",
                    "output" : 16
                },
                {
                    "input" : 14,
                    "interpolation" : "LINEAR",
                    "output" : 17
                },
                {
                    "input" : 14,
                    "interpolation" : "LINEAR",
                    "output" : 18
                },
                {
                    "input" : 14,
                    "interpolation" : "LINEAR",
                    "output" : 19
                },
                {
                    "input" : 14,
                    "interpolation" : "LINEAR",
                    "output" : 20
                }
            ]
        },
        {
            "channels" : [
                {
                    "sampler" : 0,
                    "target" : {
                        "node" : 0,
                        "path" : "translation"
                    }
                },
                {
                    "sampler" : 1,
                    "target" : {
                        "node" : 0,
                        "path" : "rotation"
                    }
                },
                {
                    "sampler" : 2,
                    "target" : {
                        "node" : 0,
                        "path" : "scale"
                    }
                },
                {
                    "sampler" : 3,
                    "target" : {
                        "node" : 1,
                        "path" : "translation"
                    }
                },
                {
                    "sampler" : 4,
                    "target" : {
                        "node" : 1,
                        "path" : "rotation"
                    }
                },
                {
                    "sampler" : 5,
                    "target" : {
                        "node" : 1,
                        "path" : "scale"
                    }
                }
            ],
            "name" : "Honking",
            "samplers" : [
                {
                    "input" : 21,
                    "interpolation" : "LINEAR",
                    "output" : 22
                },
                {
                    "input" : 21,
                    "interpolation" : "LINEAR",
                    "output" : 23
                },
                {
                    "input" : 21,
                    "interpolation" : "LINEAR",
                    "output" : 24
                },
                {
                    "input" : 21,
                    "interpolation" : "LINEAR",
                    "output" : 25
                },
                {
                    "input" : 21,
                    "interpolation" : "LINEAR",
                    "output" : 26
                },
                {
                    "input" : 21,
                    "interpolation" : "LINEAR",
                    "output" : 27
                }
            ]
        },
        {
            "channels" : [
                {
                    "sampler" : 0,
                    "target" : {
                        "node" : 0,
                        "path" : "translation"
                    }
                },
                {
                    "sampler" : 1,
                    "target" : {
                        "node" : 0,
                        "path" : "rotation"
                    }
                },
                {
                    "sampler" : 2,
                    "target" : {
                        "node" : 0,
                        "path" : "scale"
                    }
                },
                {
                    "sampler" : 3,
                    "target" : {
                        "node" : 1,
                        "path" : "translation"
                    }
                },
                {
                    "sampler" : 4,
                    "target" : {
                        "node" : 1,
                        "path" : "rotation"
                    }
                },
                {
                    "sampler" : 5,
                    "target" : {
                        "node" : 1,
                        "path" : "scale"
                    }
                }
            ],
            "name" : "Honking2",
            "samplers" : [
                {
                    "input" : 21,
                    "interpolation" : "LINEAR",
                    "output" : 28
                },
                {
                    "input" : 21,
                    "interpolation" : "LINEAR",
                    "output" : 29
                },
                {
                    "input" : 21,
                    "interpolation" : "LINEAR",
                    "output" : 30
                },
                {
                    "input" : 21,
                    "interpolation" : "LINEAR",
                    "output" : 31
                },
                {
                    "input" : 21,
                    "interpolation" : "LINEAR",
                    "output" : 32
                },
                {
                    "input" : 21,
                    "interpolation" : "LINEAR",
                    "output" : 33
                }
            ]
        },
        {
            "channels" : [
                {
                    "sampler" : 0,
                    "target" : {
                        "node" : 0,
                        "path" : "translation"
                    }
                },
                {
                    "sampler" : 1,
                    "target" : {
                        "node" : 0,
                        "path" : "rotation"
                    }
                },
                {
                    "sampler" : 2,
                    "target" : {
                        "node" : 0,
                        "path" : "scale"
                    }
                },
                {
                    "sampler" : 3,
                    "target" : {
                        "node" : 1,
                        "path" : "translation"
                    }
                },
                {
                    "sampler" : 4,
                    "target" : {
                        "node" : 1,
                        "path" : "rotation"
                    }
                },
                {
                    "sampler" : 5,
                    "target" : {
                        "node" : 1,
                        "path" : "scale"
                    }
                }
            ],
            "name" : "SpeedingUp",
            "samplers" : [
                {
                    "input" : 21,
                    "interpolation" : "LINEAR",
                    "output" : 34
                },
                {
                    "input" : 21,
                    "interpolation" : "LINEAR",
                    "output" : 35
                },
                {
                    "input" : 21,
                    "interpolation" : "LINEAR",
                    "output" : 36
                },
                {
                    "input" : 21,
                    "interpolation" : "LINEAR",
                    "output" : 37
                },
                {
                    "input" : 21,
                    "interpolation" : "LINEAR",
                    "output" : 38
                },
                {
                    "input" : 21,
                    "interpolation" : "LINEAR",
                    "output" : 39
                }
            ]
        }
    ],
    "meshes" : [
        {
            "name" : "Cube",
            "primitives" : [
                {
                    "attributes" : {
                        "POSITION" : 0,
                        "NORMAL" : 1,
                        "TEXCOORD_0" : 2,
                        "JOINTS_0" : 3,
                        "WEIGHTS_0" : 4
                    },
                    "indices" : 5
                }
            ]
        }
    ],
    "skins" : [
        {
            "inverseBindMatrices" : 6,
            "joints" : [
                0,
                1
            ],
            "name" : "CarArmature"
        }
    ],
    "accessors" : [
        {
            "bufferView" : 0,
            "componentType" : 5126,
            "count" : 2799,
            "max" : [
                4.894710063934326,
                3.6641335487365723,
                2.3855106830596924
            ],
            "min" : [
                -4.247005462646484,
                -1.6196142435073853,
                -2.3855063915252686
            ],
            "type" : "VEC3"
        },
        {
            "bufferView" : 1,
            "componentType" : 5126,
            "count" : 2799,
            "type" : "VEC3"
        },
        {
            "bufferView" : 2,
            "componentType" : 5126,
            "count" : 2799,
            "type" : "VEC2"
        },
        {
            "bufferView" : 3,
            "componentType" : 5123,
            "count" : 2799,
            "type" : "VEC4"
        },
        {
            "bufferView" : 4,
            "componentType" : 5126,
            "count" : 2799,
            "type" : "VEC4"
        },
        {
            "bufferView" : 5,
            "componentType" : 5123,
            "count" : 5013,
            "type" : "SCALAR"
        },
        {
            "bufferView" : 6,
            "componentType" : 5126,
            "count" : 2,
            "type" : "MAT4"
        },
        {
            "bufferView" : 7,
            "componentType" : 5126,
            "count" : 41,
            "max" : [
                1.7083333333333333
            ],
            "min" : [
                0.041666666666666664
            ],
            "type" : "SCALAR"
        },
        {
            "bufferView" : 8,
            "componentType" : 5126,
            "count" : 41,
            "type" : "VEC3"
        },
        {
            "bufferView" : 9,
            "componentType" : 5126,
            "count" : 41,
            "type" : "VEC4"
        },
        {
            "bufferView" : 10,
            "componentType" : 5126,
            "count" : 41,
            "type" : "VEC3"
        },
        {
            "bufferView" : 11,
            "componentType" : 5126,
            "count" : 41,
            "type" : "VEC3"
        },
        {
            "bufferView" : 12,
            "componentType" : 5126,
            "count" : 41,
            "type" : "VEC4"
        },
        {
            "bufferView" : 13,
            "componentType" : 5126,
            "count" : 41,
            "type" : "VEC3"
        },
        {
            "bufferView" : 14,
            "componentType" : 5126,
            "count" : 33,
            "max" : [
                1.375
            ],
            "min" : [
                0.041666666666666664
            ],
            "type" : "SCALAR"
        },
        {
            "bufferView" : 15,
            "componentType" : 5126,
            "count" : 33,
            "type" : "VEC3"
        },
        {
            "bufferView" : 16,
            "componentType" : 5126,
            "count" : 33,
            "type" : "VEC4"
        },
        {
            "bufferView" : 17,
            "componentType" : 5126,
            "count" : 33,
            "type" : "VEC3"
        },
        {
            "bufferView" : 18,
            "componentType" : 5126,
            "count" : 33,
            "type" : "VEC3"
        },
        {
            "bufferView" : 19,
            "componentType" : 5126,
            "count" : 33,
            "type" : "VEC4"
        },
        {
            "bufferView" : 20,
            "componentType" : 5126,
            "count" : 33,
            "type" : "VEC3"
        },
        {
            "bufferView" : 21,
            "componentType" : 5126,
            "count" : 25,
            "max" : [
                1.0416666666666667
            ],
            "min" : [
                0.041666666666666664
            ],
            "type" : "SCALAR"
        },
        {
            "bufferView" : 22,
            "componentType" : 5126,
            "count" : 25,
            "type" : "VEC3"
        },
        {
            "bufferView" : 23,
            "componentType" : 5126,
            "count" : 25,
            "type" : "VEC4"
        },
        {
            "bufferView" : 24,
            "componentType" : 5126,
            "count" : 25,
            "type" : "VEC3"
        },
        {
            "bufferView" : 25,
            "componentType" : 5126,
            "count" : 25,
            "type" : "VEC3"
        },
        {
            "bufferView" : 26,
            "componentType" : 5126,
            "count" : 25,
            "type" : "VEC4"
        },
        {
            "bufferView" : 27,
            "componentType" : 5126,
            "count" : 25,
            "type" : "VEC3"
        },
        {
            "bufferView" : 28,
            "componentType" : 5126,
            "count" : 25,
            "type" : "VEC3"
        },
        {
            "bufferView" : 29,
            "componentType" : 5126,
            "count" : 25,
            "type" : "VEC4"
        },
        {
            "bufferView" : 30,
            "componentType" : 5126,
            "count" : 25,
            "type" : "VEC3"
        },
        {
            "bufferView" : 31,
            "componentType" : 5126,
            "count" : 25,
            "type" : "VEC3"
        },
        {
            "bufferView" : 32,
            "componentType" : 5126,
            "count" : 25,
            "type" : "VEC4"
        },
        {
            "bufferView" : 33,
            "componentType" : 5126,
            "count" : 25,
            "type" : "VEC3"
        },
        {
            "bufferView" : 34,
            "componentType" : 5126,
            "count" : 25,
            "type" : "VEC3"
        },
        {
            "bufferView" : 35,
            "componentType" : 5126,
            "count" : 25,
            "type" : "VEC4"
        },
        {
            "bufferView" : 36,
            "componentType" : 5126,
            "count" : 25,
            "type" : "VEC3"
        },
        {
            "bufferView" : 37,
            "componentType" : 5126,
            "count" : 25,
            "type" : "VEC3"
        },
        {
            "bufferView" : 38,
            "componentType" : 5126,
            "count" : 25,
            "type" : "VEC4"
        },
        {
            "bufferView" : 39,
            "componentType" : 5126,
            "count" : 25,
            "type" : "VEC3"
        }
    ],
    "bufferViews" : [
        {
            "buffer" : 0,
            "byteLength" : 33588,
            "byteOffset" : 0
        },
        {
            "buffer" : 0,
            "byteLength" : 33588,
            "byteOffset" : 33588
        },
        {
            "buffer" : 0,
            "byteLength" : 22392,
            "byteOffset" : 67176
        },
        {
            "buffer" : 0,
            "byteLength" : 22392,
            "byteOffset" : 89568
        },
        {
            "buffer" : 0,
            "byteLength" : 44784,
            "byteOffset" : 111960
        },
        {
            "buffer" : 0,
            "byteLength" : 10026,
            "byteOffset" : 156744
        },
        {
            "buffer" : 0,
            "byteLength" : 128,
            "byteOffset" : 166772
        },
        {
            "buffer" : 0,
            "byteLength" : 164,
            "byteOffset" : 166900
        },
        {
            "buffer" : 0,
            "byteLength" : 492,
            "byteOffset" : 167064
        },
        {
            "buffer" : 0,
            "byteLength" : 656,
            "byteOffset" : 167556
        },
        {
            "buffer" : 0,
            "byteLength" : 492,
            "byteOffset" : 168212
        },
        {
            "buffer" : 0,
            "byteLength" : 492,
            "byteOffset" : 168704
        },
        {
            "buffer" : 0,
            "byteLength" : 656,
            "byteOffset" : 169196
        },
        {
            "buffer" : 0,
            "byteLength" : 492,
            "byteOffset" : 169852
        },
        {
            "buffer" : 0,
            "byteLength" : 132,
            "byteOffset" : 170344
        },
        {
            "buffer" : 0,
            "byteLength" : 396,
            "byteOffset" : 170476
        },
        {
            "buffer" : 0,
            "byteLength" : 528,
            "byteOffset" : 170872
        },
        {
            "buffer" : 0,
            "byteLength" : 396,
            "byteOffset" : 171400
        },
        {
            "buffer" : 0,
            "byteLength" : 396,
            "byteOffset" : 171796
        },
        {
            "buffer" : 0,
            "byteLength" : 528,
            "byteOffset" : 172192
        },
        {
            "buffer" : 0,
            "byteLength" : 396,
            "byteOffset" : 172720
        },
        {
            "buffer" : 0,
            "byteLength" : 100,
            "byteOffset" : 173116
        },
        {
            "buffer" : 0,
            "byteLength" : 300,
            "byteOffset" : 173216
        },
        {
            "buffer" : 0,
            "byteLength" : 400,
            "byteOffset" : 173516
        },
        {
            "buffer" : 0,
            "byteLength" : 300,
            "byteOffset" : 173916
        },
        {
            "buffer" : 0,
            "byteLength" : 300,
            "byteOffset" : 174216
        },
        {
            "buffer" : 0,
            "byteLength" : 400,
            "byteOffset" : 174516
        },
        {
            "buffer" : 0,
            "byteLength" : 300,
            "byteOffset" : 174916
        },
        {
            "buffer" : 0,
            "byteLength" : 300,
            "byteOffset" : 175216
        },
        {
            "buffer" : 0,
            "byteLength" : 400,
            "byteOffset" : 175516
        },
        {
            "buffer" : 0,
            "byteLength" : 300,
            "byteOffset" : 175916
        },
        {
            "buffer" : 0,
            "byteLength" : 300,
            "byteOffset" : 176216
        },
        {
            "buffer" : 0,
            "byteLength" : 400,
            "byteOffset" : 176516
        },
        {
            "buffer" : 0,
            "byteLength" : 300,
            "byteOffset" : 176916
        },
        {
            "buffer" : 0,
            "byteLength" : 300,
            "byteOffset" : 177216
        },
        {
            "buffer" : 0,
            "byteLength" : 400,
            "byteOffset" : 177516
        },
        {
            "buffer" : 0,
            "byteLength" : 300,
            "byteOffset" : 177916
        },
        {
            "buffer" : 0,
            "byteLength" : 300,
            "byteOffset" : 178216
        },
        {
            "buffer" : 0,
            "byteLength" : 400,
            "byteOffset" : 178516
        },
        {
            "buffer" : 0,
            "byteLength" : 300,
            "byteOffset" : 178916
        }
    ],
    "buffers" : [
        {
            "byteLength" : 179216,
            "uri" : "data:application/octet-stream;base64,"
        }
    ]
}
