{
    "asset" : {
        "generator" : "Khronos glTF Blender I/O v1.2.75",
        "version" : "2.0"
    },
    "scene" : 0,
    "scenes" : [
        {
            "name" : "Scene",
            "nodes" : [
                0
            ]
        }
    ],
    "nodes" : [
        {
            "mesh" : 0,
            "name" : "House4",
            "translation" : [
                1,
                0,
                0
            ]
        }
    ],
    "meshes" : [
        {
            "name" : "Cube.004",
            "primitives" : [
                {
                    "attributes" : {
                        "POSITION" : 0,
                        "NORMAL" : 1,
                        "TEXCOORD_0" : 2
                    },
                    "indices" : 3
                }
            ]
        }
    ],
    "accessors" : [
        {
            "bufferView" : 0,
            "componentType" : 5126,
            "count" : 1234,
            "max" : [
                8.839730262756348,
                16.941299438476562,
                9.800922393798828
            ],
            "min" : [
                -8.839730262756348,
                0.043028831481933594,
                -8.839730262756348
            ],
            "type" : "VEC3"
        },
        {
            "bufferView" : 1,
            "componentType" : 5126,
            "count" : 1234,
            "type" : "VEC3"
        },
        {
            "bufferView" : 2,
            "componentType" : 5126,
            "count" : 1234,
            "type" : "VEC2"
        },
        {
            "bufferView" : 3,
            "componentType" : 5123,
            "count" : 2868,
            "type" : "SCALAR"
        }
    ],
    "bufferViews" : [
        {
            "buffer" : 0,
            "byteLength" : 14808,
            "byteOffset" : 0
        },
        {
            "buffer" : 0,
            "byteLength" : 14808,
            "byteOffset" : 14808
        },
        {
            "buffer" : 0,
            "byteLength" : 9872,
            "byteOffset" : 29616
        },
        {
            "buffer" : 0,
            "byteLength" : 5736,
            "byteOffset" : 39488
        }
    ],
    "buffers" : [
        {
            "byteLength" : 45224,
            "uri" : "data:application/octet-stream;base64,"
        }
    ]
}
