{
    "asset" : {
        "generator" : "Khronos glTF Blender I/O v1.2.75",
        "version" : "2.0"
    },
    "scene" : 0,
    "scenes" : [
        {
            "name" : "Scene",
            "nodes" : [
                0
            ]
        }
    ],
    "nodes" : [
        {
            "mesh" : 0,
            "name" : "House2"
        }
    ],
    "meshes" : [
        {
            "name" : "Cube.002",
            "primitives" : [
                {
                    "attributes" : {
                        "POSITION" : 0,
                        "NORMAL" : 1,
                        "TEXCOORD_0" : 2
                    },
                    "indices" : 3
                }
            ]
        }
    ],
    "accessors" : [
        {
            "bufferView" : 0,
            "componentType" : 5126,
            "count" : 634,
            "max" : [
                9.917619705200195,
                18.348674774169922,
                7.173629283905029
            ],
            "min" : [
                -9.917619705200195,
                -0.0291748046875,
                -7.173629283905029
            ],
            "type" : "VEC3"
        },
        {
            "bufferView" : 1,
            "componentType" : 5126,
            "count" : 634,
            "type" : "VEC3"
        },
        {
            "bufferView" : 2,
            "componentType" : 5126,
            "count" : 634,
            "type" : "VEC2"
        },
        {
            "bufferView" : 3,
            "componentType" : 5123,
            "count" : 774,
            "type" : "SCALAR"
        }
    ],
    "bufferViews" : [
        {
            "buffer" : 0,
            "byteLength" : 7608,
            "byteOffset" : 0
        },
        {
            "buffer" : 0,
            "byteLength" : 7608,
            "byteOffset" : 7608
        },
        {
            "buffer" : 0,
            "byteLength" : 5072,
            "byteOffset" : 15216
        },
        {
            "buffer" : 0,
            "byteLength" : 1548,
            "byteOffset" : 20288
        }
    ],
    "buffers" : [
        {
            "byteLength" : 21836,
            "uri" : "data:application/octet-stream;base64,"
        }
    ]
}
