{
    "asset" : {
        "generator" : "Khronos glTF Blender I/O v1.2.75",
        "version" : "2.0"
    },
    "scene" : 0,
    "scenes" : [
        {
            "name" : "Scene",
            "nodes" : [
                0
            ]
        }
    ],
    "nodes" : [
        {
            "mesh" : 0,
            "name" : "House3"
        }
    ],
    "meshes" : [
        {
            "name" : "Cube.003",
            "primitives" : [
                {
                    "attributes" : {
                        "POSITION" : 0,
                        "NORMAL" : 1,
                        "TEXCOORD_0" : 2
                    },
                    "indices" : 3
                }
            ]
        }
    ],
    "accessors" : [
        {
            "bufferView" : 0,
            "componentType" : 5126,
            "count" : 941,
            "max" : [
                11.152972221374512,
                19.55059051513672,
                5.535983562469482
            ],
            "min" : [
                -9.394390106201172,
                0.03685569763183594,
                -5.535983562469482
            ],
            "type" : "VEC3"
        },
        {
            "bufferView" : 1,
            "componentType" : 5126,
            "count" : 941,
            "type" : "VEC3"
        },
        {
            "bufferView" : 2,
            "componentType" : 5126,
            "count" : 941,
            "type" : "VEC2"
        },
        {
            "bufferView" : 3,
            "componentType" : 5123,
            "count" : 1002,
            "type" : "SCALAR"
        }
    ],
    "bufferViews" : [
        {
            "buffer" : 0,
            "byteLength" : 11292,
            "byteOffset" : 0
        },
        {
            "buffer" : 0,
            "byteLength" : 11292,
            "byteOffset" : 11292
        },
        {
            "buffer" : 0,
            "byteLength" : 7528,
            "byteOffset" : 22584
        },
        {
            "buffer" : 0,
            "byteLength" : 2004,
            "byteOffset" : 30112
        }
    ],
    "buffers" : [
        {
            "byteLength" : 32116,
            "uri" : "data:application/octet-stream;base64,"
        }
    ]
}
