{
    "asset" : {
        "generator" : "Khronos glTF Blender I/O v1.2.75",
        "version" : "2.0"
    },
    "scene" : 0,
    "scenes" : [
        {
            "name" : "Scene",
            "nodes" : [
                0
            ]
        }
    ],
    "nodes" : [
        {
            "mesh" : 0,
            "name" : "Tree3"
        }
    ],
    "meshes" : [
        {
            "name" : "Cylinder.002",
            "primitives" : [
                {
                    "attributes" : {
                        "POSITION" : 0,
                        "NORMAL" : 1,
                        "TEXCOORD_0" : 2
                    },
                    "indices" : 3
                }
            ]
        }
    ],
    "accessors" : [
        {
            "bufferView" : 0,
            "componentType" : 5126,
            "count" : 2136,
            "max" : [
                4.244149208068848,
                14.681429862976074,
                2.610830307006836
            ],
            "min" : [
                -4.455304145812988,
                -0.10466241836547852,
                -2.628288984298706
            ],
            "type" : "VEC3"
        },
        {
            "bufferView" : 1,
            "componentType" : 5126,
            "count" : 2136,
            "type" : "VEC3"
        },
        {
            "bufferView" : 2,
            "componentType" : 5126,
            "count" : 2136,
            "type" : "VEC2"
        },
        {
            "bufferView" : 3,
            "componentType" : 5123,
            "count" : 2934,
            "type" : "SCALAR"
        }
    ],
    "bufferViews" : [
        {
            "buffer" : 0,
            "byteLength" : 25632,
            "byteOffset" : 0
        },
        {
            "buffer" : 0,
            "byteLength" : 25632,
            "byteOffset" : 25632
        },
        {
            "buffer" : 0,
            "byteLength" : 17088,
            "byteOffset" : 51264
        },
        {
            "buffer" : 0,
            "byteLength" : 5868,
            "byteOffset" : 68352
        }
    ],
    "buffers" : [
        {
            "byteLength" : 74220,
            "uri" : "data:application/octet-stream;base64,"
        }
    ]
}
