{
    "asset" : {
        "generator" : "Khronos glTF Blender I/O v1.2.75",
        "version" : "2.0"
    },
    "scene" : 0,
    "scenes" : [
        {
            "name" : "Scene",
            "nodes" : [
                0
            ]
        }
    ],
    "nodes" : [
        {
            "mesh" : 0,
            "name" : "HeartParticle"
        }
    ],
    "meshes" : [
        {
            "name" : "Circle.013",
            "primitives" : [
                {
                    "attributes" : {
                        "POSITION" : 0,
                        "NORMAL" : 1,
                        "TEXCOORD_0" : 2
                    },
                    "indices" : 3
                }
            ]
        }
    ],
    "accessors" : [
        {
            "bufferView" : 0,
            "componentType" : 5126,
            "count" : 69,
            "max" : [
                1.5388787984848022,
                1.3939718008041382,
                0.5077827572822571
            ],
            "min" : [
                -1.6082192659378052,
                -1.5471585988998413,
                -0.5046671032905579
            ],
            "type" : "VEC3"
        },
        {
            "bufferView" : 1,
            "componentType" : 5126,
            "count" : 69,
            "type" : "VEC3"
        },
        {
            "bufferView" : 2,
            "componentType" : 5126,
            "count" : 69,
            "type" : "VEC2"
        },
        {
            "bufferView" : 3,
            "componentType" : 5123,
            "count" : 402,
            "type" : "SCALAR"
        }
    ],
    "bufferViews" : [
        {
            "buffer" : 0,
            "byteLength" : 828,
            "byteOffset" : 0
        },
        {
            "buffer" : 0,
            "byteLength" : 828,
            "byteOffset" : 828
        },
        {
            "buffer" : 0,
            "byteLength" : 552,
            "byteOffset" : 1656
        },
        {
            "buffer" : 0,
            "byteLength" : 804,
            "byteOffset" : 2208
        }
    ],
    "buffers" : [
        {
            "byteLength" : 3012,
            "uri" : "data:application/octet-stream;base64,"
        }
    ]
}
